<?xml version="1.0" encoding="UTF-8" standalone="no"?>
<svg
   id="Layer_1"
   data-name="Layer 1"
   viewBox="0 0 122.88 93.25"
   version="1.1"
   sodipodi:docname="prototype-icon.svg"
   inkscape:version="1.4.2 (ebf0e940, 2025-05-08)"
   xmlns:inkscape="http://www.inkscape.org/namespaces/inkscape"
   xmlns:sodipodi="http://sodipodi.sourceforge.net/DTD/sodipodi-0.dtd"
   xmlns="http://www.w3.org/2000/svg"
   xmlns:svg="http://www.w3.org/2000/svg">
  <defs
     id="defs1" />
  <sodipodi:namedview
     id="namedview1"
     pagecolor="#ffffff"
     bordercolor="#000000"
     borderopacity="0.25"
     inkscape:showpageshadow="2"
     inkscape:pageopacity="0.0"
     inkscape:pagecheckerboard="0"
     inkscape:deskcolor="#d1d1d1"
     inkscape:zoom="6.7220054"
     inkscape:cx="61.439999"
     inkscape:cy="34.662275"
     inkscape:window-width="1456"
     inkscape:window-height="1027"
     inkscape:window-x="216"
     inkscape:window-y="51"
     inkscape:window-maximized="0"
     inkscape:current-layer="Layer_1" />
  <title
     id="title1">prototype</title>
  <path
     d="M4.52,69.17l.23-.2a13.14,13.14,0,0,1,1.37-1,14.11,14.11,0,0,1,3.12-1.53,21.7,21.7,0,0,1,3-.8V4.29c-7.79,1.2-7.74,9-7.7,16.31a16.3,16.3,0,0,1,0,1.86V69.17Zm61.62,9.59a8.6,8.6,0,0,1-3.31,3,7.79,7.79,0,0,1-7.34,0A7.45,7.45,0,0,1,53.38,80l12.76-1.19ZM67.4,41.31a1.07,1.07,0,0,0-.8-.34,1.09,1.09,0,0,0-.81.34l-1.23,1.23A7.56,7.56,0,0,0,63.51,42a10.62,10.62,0,0,0-1.11-.43V39.65a1.13,1.13,0,0,0-1.14-1.14H58.9a1.11,1.11,0,0,0-.8.33,1.07,1.07,0,0,0-.34.81v1.73a9,9,0,0,0-1.15.35,11.42,11.42,0,0,0-1.06.49l-1.36-1.34a1,1,0,0,0-.79-.34,1.1,1.1,0,0,0-.81.34l-1.65,1.66a1.1,1.1,0,0,0-.34.81,1.07,1.07,0,0,0,.34.8l1.22,1.24a8,8,0,0,0-.56,1,11.64,11.64,0,0,0-.44,1.11H49.27a1.09,1.09,0,0,0-.8.33,1.08,1.08,0,0,0-.33.81v2.37a1.13,1.13,0,0,0,1.13,1.13H51a7.32,7.32,0,0,0,.36,1.15,8.73,8.73,0,0,0,.49,1.08L50.5,55.75a1.08,1.08,0,0,0-.34.79,1.14,1.14,0,0,0,.34.81L52.16,59a1.19,1.19,0,0,0,1.62,0L55,57.78a9.48,9.48,0,0,0,1,.57,11.73,11.73,0,0,0,1.12.43v1.89a1.13,1.13,0,0,0,1.13,1.14h2.37a1.14,1.14,0,0,0,1.14-1.14V58.94A9,9,0,0,0,63,58.59,10.5,10.5,0,0,0,64,58.1l1.34,1.34a1.1,1.1,0,0,0,1.59,0l1.68-1.66A1.12,1.12,0,0,0,69,57a1.09,1.09,0,0,0-.32-.8L67.4,54.93a6.54,6.54,0,0,0,.57-1,11.64,11.64,0,0,0,.44-1.11h1.88a1.13,1.13,0,0,0,1.14-1.14V49.27a1.13,1.13,0,0,0-.33-.8,1.1,1.1,0,0,0-.81-.33H68.57A10,10,0,0,0,68.21,47a7,7,0,0,0-.49-1.07l1.34-1.36a1.05,1.05,0,0,0,.35-.79,1.11,1.11,0,0,0-.35-.81L67.4,41.31ZM60.88,21.67a2.06,2.06,0,0,1,.72-1.4,2,2,0,0,1,1.46-.48h0l.14,0a2.07,2.07,0,0,1,1.28.7A2,2,0,0,1,65,22h0s0,.07,0,.1l-.35,4.35h0s0,.09,0,.14a2.06,2.06,0,0,1-2.16,1.76h0l-.15,0a2,2,0,0,1-1.76-2.16h0a.34.34,0,0,1,0-.1l.34-4.37ZM38,28.07a2.05,2.05,0,0,1,0-2.89,2.12,2.12,0,0,1,1.46-.58,2,2,0,0,1,1.43.63L44,28.45a2.12,2.12,0,0,1,.58,1.46,2.05,2.05,0,0,1-3.52,1.38L38,28.07ZM31.41,50.24a2.05,2.05,0,0,1-2-2.09,2,2,0,0,1,.64-1.43,2,2,0,0,1,1.46-.56l4.47.09a2,2,0,0,1,2,2.09v0h0v.08a2.06,2.06,0,0,1-.63,1.32,2,2,0,0,1-1.46.57h-.08l-4.42-.1ZM88,47h.07a2,2,0,0,1,2.06,2V49a2,2,0,0,1-1.95,2.06l-4.46.22a2,2,0,0,1-1.47-.53,2,2,0,0,1-.67-1.41,2.05,2.05,0,0,1,1.94-2.14c1.49-.08,3-.17,4.48-.23ZM80.19,28.75a2,2,0,0,1,2.85-.4h0a2,2,0,0,1,.79,1.34,2,2,0,0,1-.39,1.51l-2.69,3.58a2,2,0,0,1-1.35.8,2,2,0,0,1-1.92-3.26l2.7-3.58ZM47,63.76C46.36,62.9,45.67,62,45,60.93A20,20,0,0,1,43,57.29a20.72,20.72,0,0,1-1.22-4.16v-.05a18.36,18.36,0,0,1-.24-4.26,18.77,18.77,0,0,1,.84-4.39,21.27,21.27,0,0,1,2-4.41l.13-.2a17.88,17.88,0,0,1,3.8-4.11A16.89,16.89,0,0,1,53.26,33l.13,0a17.77,17.77,0,0,1,4.14-.87,18.94,18.94,0,0,1,4.45.14,19.55,19.55,0,0,1,4.22,1.1l.14.06a20.22,20.22,0,0,1,3.72,1.94,18,18,0,0,1,4.15,3.82A16.27,16.27,0,0,1,76.86,44a18.91,18.91,0,0,1,.79,3.07,18.29,18.29,0,0,1,.23,3.36,17,17,0,0,1-.51,3.73,18.22,18.22,0,0,1-1.3,3.65,39.16,39.16,0,0,1-5.18,7.48c-1,1.25-2,2.49-2.86,3.69a1.61,1.61,0,0,1-1.63.65L51.57,71a1.59,1.59,0,0,1-1.69-1.16,22.15,22.15,0,0,0-1.26-3.45A14.07,14.07,0,0,0,47,63.76Zm.59-4.58c.58.88,1.26,1.75,1.93,2.6a17.18,17.18,0,0,1,2,3.26,25.85,25.85,0,0,1,1.06,2.66L65.9,66.46c.77-1,1.63-2.1,2.49-3.17a37.71,37.71,0,0,0,4.78-6.82,15.87,15.87,0,0,0,1.09-3.06,13.85,13.85,0,0,0,.41-3,14,14,0,0,0-.19-2.77,15.48,15.48,0,0,0-.65-2.54,13.08,13.08,0,0,0-2.13-3.88A15,15,0,0,0,68.28,38a16.63,16.63,0,0,0-3.1-1.62l-.12,0a16.77,16.77,0,0,0-3.54-.92,16.43,16.43,0,0,0-3.71-.12,14.71,14.71,0,0,0-3.38.7l-.13,0a13.48,13.48,0,0,0-4,2.16,14.24,14.24,0,0,0-3.11,3.37l0,.06a18.22,18.22,0,0,0-1.7,3.72A15.07,15.07,0,0,0,44.78,49a14.68,14.68,0,0,0,.2,3.5v0a18,18,0,0,0,1,3.53,18.45,18.45,0,0,0,1.62,3.08ZM59.78,43.87a6.21,6.21,0,0,1,2.46.49,6.33,6.33,0,0,1,2,1.34,6.52,6.52,0,0,1,1.35,2,6.49,6.49,0,0,1,0,4.9,6.52,6.52,0,0,1-1.35,2,6.33,6.33,0,0,1-2,1.34,6.4,6.4,0,0,1-4.91,0,6.33,6.33,0,0,1-2-1.34,6.52,6.52,0,0,1-1.35-2,6.37,6.37,0,0,1,0-4.9,6.52,6.52,0,0,1,1.35-2,6.33,6.33,0,0,1,2-1.34,6.16,6.16,0,0,1,2.45-.49Zm8,27.87,0,.83v.29a11.12,11.12,0,0,1-.07,1.63l-.31,1.18L51.86,77.11l-.23-.63L51.16,74l0-.72,16.55-1.54ZM122.79,28V91.75H105.54V28h-.07l.59-1.19,7.12-14.63.72-1.5.76,1.47,7.58,14.64.64,1.21Zm-14.65-1.67h12l-4.78-9.2h-2.76l-4.48,9.2ZM16.33,67.44a2.13,2.13,0,0,1-.49,1.22,2,2,0,0,1-1.26.69h-.05a25,25,0,0,0-3.36.73A10.62,10.62,0,0,0,8.4,71.35,8.64,8.64,0,0,0,6.25,73.4a14.1,14.1,0,0,0-1.77,3.21,18.83,18.83,0,0,0,.35,4.62,10.14,10.14,0,0,0,1.54,3.66l0,0a8.82,8.82,0,0,0,3,2.61l0,0a15,15,0,0,0,4.73,1.54h86.08a.62.62,0,0,1,.62.62v2l0,.39.05.39a.62.62,0,0,1-.51.71H14a13.34,13.34,0,0,1-6-1.78,14.9,14.9,0,0,1-5-4.19A14,14,0,0,1,.82,82.2a22.75,22.75,0,0,1-.44-6.06c0-17.92-.86-37.91,0-55.57C.35,15.77.32,10.78,2,6.9S7.16.13,14.06,0h.21a2.11,2.11,0,0,1,1.47.6,2.11,2.11,0,0,1,.6,1.47v9.81h90.77a.62.62,0,0,1,.62.62.56.56,0,0,1-.09.31l-1.39,2.85a.6.6,0,0,1-.55.35H16.34V67.44Z"
     id="path1" />
  <path
     style="fill:#000080;stroke-width:0.148765"
     d="M 105.62324,59.725897 V 27.812476 l 0.6184,-1.224012 c 0.34011,-0.673205 2.20372,-4.47979 4.14134,-8.459078 l 3.52294,-7.235068 4.41266,8.516639 4.41265,8.516639 V 59.783459 91.63932 h -8.55399 -8.554 z m 12.78499,-36.927641 c -0.99986,-1.943244 -2.08241,-4.018518 -2.40566,-4.611719 l -0.58772,-1.078547 h -1.45829 c -1.02686,0 -1.48081,0.05501 -1.5344,0.185956 -0.0419,0.102276 -1.04966,2.17755 -2.23956,4.611719 l -2.16346,4.425763 h 6.10351 6.10351 z"
     id="path2" />
  <path
     style="fill:#000080;stroke-width:0.148765"
     d="M 12.868184,92.961968 C 9.2848374,92.445213 4.9450185,89.823265 3.0111568,87.006741 1.7449348,85.162583 0.89102619,82.78307 0.61593041,80.332172 0.52874592,79.555423 0.41652316,74.200328 0.36654646,68.43196 0.31656979,62.663592 0.22542084,53.620066 0.16399326,48.335237 0.05584853,39.031166 0.13523812,30.403952 0.43424141,18.967554 0.58350892,13.25831 0.70430255,11.789342 1.1968451,9.6935491 2.5721302,3.8416445 6.4170474,0.64757762 12.657984,0.17249995 c 1.86692,-0.14211516 2.420802,-0.0388373 3.023644,0.56379446 l 0.459389,0.45922689 0.04255,5.3528445 0.04255,5.3528442 h 45.493712 c 44.624121,0 45.498641,0.0054 45.751411,0.28475 0.24681,0.272727 0.22109,0.355948 -0.60919,1.971138 l -0.86689,1.686388 -44.889887,0.03744 -44.889878,0.03743 V 41.89726 c 0,25.611592 -0.0042,25.985626 -0.293876,26.454406 -0.373466,0.604281 -0.701761,0.748537 -2.569914,1.129242 -4.4135175,0.899418 -6.6308921,2.423671 -8.2922465,5.700201 -0.6022017,1.187665 -0.6146933,1.243412 -0.6094602,2.719846 0.021099,5.9526 2.5347541,9.393247 7.9156677,10.834825 l 1.395205,0.373784 43.298091,3.75e-4 c 33.47752,2.9e-4 43.338588,0.04087 43.476608,0.178893 0.24554,0.245532 0.24554,3.41409 0,3.659622 -0.13811,0.138114 -9.978438,0.174412 -43.476608,0.160378 -23.813951,-0.01 -43.699757,-0.07606 -44.190682,-0.146863 z M 5.5388584,68.492648 c 1.3498325,-0.99369 3.4014583,-1.938902 5.2189946,-2.404461 l 1.589653,-0.407188 V 34.920377 4.1597551 l -0.409104,0.086899 C 7.277618,5.2366679 5.2030496,8.1240983 4.621689,14.430218 4.4632852,16.14845 4.3811755,69.175785 4.5369186,69.175785 c 0.040681,0 0.4915536,-0.307411 1.0019398,-0.683137 z"
     id="path3" />
  <path
     style="fill:#000080;stroke-width:0.148765"
     d="m 50.633634,70.674979 c -0.394079,-0.240297 -0.54261,-0.51375 -0.949149,-1.747435 -0.717268,-2.17662 -1.475296,-3.664241 -2.754071,-5.404834 -2.865796,-3.900749 -3.852938,-5.781038 -4.764157,-9.074672 -0.528219,-1.909269 -0.671336,-5.494664 -0.29988,-7.51264 1.471946,-7.996487 7.21333,-13.598627 15.009859,-14.645827 5.415735,-0.727421 11.495429,1.267764 15.524047,5.094557 3.348002,3.180275 5.149805,7.193954 5.356244,11.931513 0.178536,4.097231 -0.932536,7.516936 -3.866736,11.90121 -0.934729,1.396668 -1.110417,1.626186 -3.300737,4.312032 -0.736387,0.902985 -1.687883,2.114546 -2.114436,2.692358 -0.852948,1.155413 -1.23337,1.40084 -2.171367,1.40084 -0.344882,0 -3.873045,0.300599 -7.840361,0.668 -3.967317,0.367399 -7.246775,0.668399 -7.287685,0.668887 -0.04091,4.87e-4 -0.284618,-0.127308 -0.541571,-0.283989 z M 66.11124,66.332842 c 0.102356,-0.113707 0.682886,-0.842713 1.290063,-1.620011 0.607177,-0.777297 1.496123,-1.881878 1.975434,-2.454624 1.115465,-1.332907 3.193998,-4.453552 3.872186,-5.813581 0.288823,-0.579202 0.708556,-1.650311 0.932739,-2.380242 0.379473,-1.235549 0.407773,-1.511958 0.410031,-4.004918 0.0028,-3.067684 -0.202719,-4.10468 -1.245811,-6.286726 -0.776243,-1.623825 -1.319534,-2.391302 -2.741371,-3.872591 -2.282923,-2.378378 -4.93695,-3.738174 -8.643834,-4.428684 -1.025128,-0.190958 -1.826957,-0.23053 -3.421598,-0.168862 -4.229432,0.163562 -7.102758,1.433005 -9.902332,4.374878 -1.066446,1.120652 -1.404695,1.606481 -2.110774,3.031708 -2.321557,4.686083 -2.44159,9.100581 -0.377336,13.877439 0.634124,1.467418 1.507437,2.888118 3.029119,4.927753 1.375142,1.843215 2.25663,3.39795 2.955609,5.212989 l 0.403421,1.047567 6.694175,-0.617676 c 4.894738,-0.45164 6.744202,-0.67325 6.880279,-0.824419 z"
     id="path4" />
  <path
     style="fill:#000080;stroke-width:0.148765"
     d="m 57.68162,61.551572 c -0.375327,-0.285011 -0.55581,-0.928227 -0.55581,-1.980822 0,-0.66565 -0.05665,-0.957863 -0.185957,-0.959174 -0.102276,-10e-4 -0.580863,-0.202143 -1.063528,-0.446904 l -0.877572,-0.44502 -0.787131,0.744434 c -1.134396,1.072864 -1.419231,1.038657 -2.824119,-0.33917 -1.397157,-1.370244 -1.417206,-1.568682 -0.286407,-2.834819 0.531971,-0.595639 0.785005,-0.994556 0.722847,-1.13959 -0.0526,-0.122731 -0.245793,-0.624813 -0.429319,-1.115738 l -0.333684,-0.892591 -1.146511,-0.07438 c -1.580815,-0.102559 -1.714527,-0.276307 -1.714527,-2.227895 0,-1.242788 0.04426,-1.50738 0.308328,-1.843083 0.286588,-0.364338 0.391161,-0.391975 1.483146,-0.391975 h 1.174819 l 0.528822,-1.144567 0.528823,-1.144566 -0.747466,-0.756867 c -1.090899,-1.104621 -1.051008,-1.367497 0.425573,-2.804425 0.737798,-0.717985 1.293868,-1.141537 1.498695,-1.141537 0.192426,0 0.684251,0.342041 1.202164,0.836046 l 0.876507,0.836046 0.973579,-0.38975 c 0.535468,-0.214363 1.073291,-0.389751 1.195161,-0.389751 0.176275,0 0.221583,-0.224767 0.221583,-1.099257 0,-1.598851 0.186599,-1.785941 1.849359,-1.854227 2.279323,-0.09361 2.613594,0.14751 2.613594,1.885244 v 1.163236 l 1.118936,0.491736 1.118935,0.491736 0.806106,-0.762382 c 1.135452,-1.073862 1.339752,-1.044468 2.784912,0.400692 0.768879,0.76888 1.163073,1.277601 1.163073,1.500992 0,0.200092 -0.335386,0.711705 -0.822289,1.25436 -0.475201,0.52961 -0.792448,1.010632 -0.751593,1.139589 0.03888,0.122731 0.224787,0.64155 0.413119,1.15293 l 0.34242,0.929782 h 0.992064 c 0.545637,0 1.100433,0.04158 1.232883,0.09241 0.467238,0.179296 0.676107,0.881231 0.676107,2.272149 0,1.198338 -0.03731,1.381357 -0.357521,1.753621 -0.324943,0.37777 -0.463888,0.420542 -1.524843,0.469402 l -1.167321,0.05376 -0.483487,1.017482 c -0.265917,0.559616 -0.483486,1.074287 -0.483486,1.143713 0,0.06942 0.334721,0.455916 0.743825,0.858868 1.041856,1.026191 1.010079,1.229941 -0.412394,2.644071 -1.459138,1.450579 -1.651582,1.472176 -2.858684,0.320793 l -0.86875,-0.828646 -0.496284,0.25859 c -0.272957,0.142224 -0.764062,0.338094 -1.091345,0.435267 -0.591209,0.175537 -0.59531,0.181875 -0.633625,0.979162 -0.09124,1.898621 -0.279665,2.066986 -2.313244,2.066986 -0.9971,0 -1.619268,-0.06505 -1.778483,-0.185957 z m 3.577105,-5.245535 c 1.307561,-0.308277 2.045316,-0.722563 3.010614,-1.69061 1.460665,-1.464824 2.072572,-3.328039 1.777123,-5.411223 -0.492819,-3.474828 -3.669774,-5.809213 -7.221457,-5.306233 -5.196069,0.735854 -7.224798,7.226557 -3.391785,10.851661 1.601976,1.515082 3.664037,2.066004 5.825505,1.556405 z"
     id="path5" />
  <path
     style="fill:#000080;stroke-width:0.148765"
     d="m 78.113188,35.291736 c -0.682012,-0.375757 -1.090366,-1.136312 -1.000448,-1.863324 0.05162,-0.417378 0.405773,-1.011706 1.359401,-2.281315 1.714936,-2.283172 2.2291,-2.832832 2.837816,-3.033726 0.661522,-0.218322 1.350026,-9.39e-4 1.936786,0.611506 0.368007,0.384116 0.433643,0.572475 0.433643,1.244444 0,0.776427 -0.03037,0.831595 -1.562489,2.838245 -0.859369,1.125534 -1.735441,2.175554 -1.946826,2.333376 -0.568495,0.424443 -1.44467,0.488645 -2.057883,0.150794 z"
     id="path6" />
  <path
     style="fill:#000080;stroke-width:0.148765"
     d="m 82.609061,50.883697 c -1.263224,-0.770233 -1.209926,-2.673599 0.09374,-3.347753 0.575811,-0.297763 5.088908,-0.581791 5.832673,-0.367073 1.264453,0.365034 1.842684,1.659023 1.251882,2.801509 -0.389203,0.752634 -0.879983,0.94336 -2.752848,1.069803 -2.981886,0.201316 -3.89138,0.169156 -4.425451,-0.156486 z"
     id="path7" />
  <path
     style="fill:#000080;stroke-width:0.148765"
     d="M 61.811911,28.123449 C 61.64827,28.055762 61.349025,27.82244 61.146922,27.604956 60.669154,27.090825 60.606647,25.985498 60.89047,23.070029 l 0.208882,-2.145661 0.540052,-0.494921 c 0.46515,-0.426278 0.645944,-0.49492 1.303563,-0.49492 0.688555,0 0.820214,0.0567 1.341071,0.577559 0.554201,0.554201 0.577559,0.617259 0.577559,1.559224 0,1.875683 -0.317505,4.762878 -0.572972,5.210267 -0.445287,0.77981 -1.642719,1.186835 -2.476714,0.841872 z"
     id="path8" />
  <path
     style="fill:#000080;stroke-width:0.148765"
     d="m 32.626124,50.151332 c -1.916155,-0.08973 -1.972441,-0.102099 -2.420754,-0.531984 -0.252441,-0.242064 -0.537206,-0.701196 -0.632809,-1.020292 -0.153686,-0.512957 -0.135448,-0.652516 0.157411,-1.204562 0.555525,-1.047174 0.822208,-1.128659 3.690753,-1.127709 1.37833,4.56e-4 2.752792,0.06936 3.054361,0.153118 1.126259,0.312809 1.722499,1.598171 1.215026,2.619329 -0.594596,1.19647 -1.063465,1.299438 -5.063988,1.1121 z"
     id="path9" />
  <path
     style="fill:#000080;stroke-width:0.148765"
     d="m 51.798604,76.646199 c -0.197616,-0.52412 -0.682172,-3.147041 -0.597097,-3.232115 0.05495,-0.05495 15.791543,-1.560526 16.31093,-1.560526 0.229672,0 0.237405,2.15219 0.01096,3.051471 -0.198847,0.789691 0.685709,0.631329 -7.868584,1.40871 -3.559206,0.323447 -6.748613,0.621486 -7.087572,0.662308 -0.563811,0.0679 -0.629261,0.03982 -0.768641,-0.329848 z"
     id="path10" />
  <path
     style="fill:#000080;stroke-width:0.148765"
     d="m 57.228654,82.341384 c -1.086755,-0.298757 -2.179686,-0.884514 -2.99739,-1.606452 l -0.737451,-0.651084 0.811834,-0.09125 c 3.240104,-0.3642 11.320774,-1.02677 11.411317,-0.935665 0.18583,0.186985 -1.909192,2.061541 -2.87594,2.573295 -0.49752,0.263365 -1.298125,0.581351 -1.77912,0.706634 -1.049244,0.273294 -2.847857,0.275417 -3.83325,0.0045 z"
     id="path11" />
  <path
     style="fill:#000080;stroke-width:0.148765"
     d="m 41.728619,31.626779 c -0.245463,-0.108522 -1.262493,-1.072135 -2.260068,-2.141361 -1.987104,-2.129829 -2.196757,-2.541106 -1.811435,-3.553505 0.383153,-1.0067 1.67417,-1.522633 2.60526,-1.041148 0.469147,0.242606 3.756929,3.671281 4.046808,4.220229 0.438787,0.830937 -0.01919,2.052705 -0.931785,2.485758 -0.60387,0.286556 -1.050163,0.294683 -1.64878,0.03003 z"
     id="path12" />
</svg>
